<svg width="38" height="38" viewBox="0 0 38 38" fill="none" xmlns="http://www.w3.org/2000/svg">
<g clip-path="url(#clip0_9_232)">
<path d="M19 34.4375C15.9468 34.4375 12.9621 33.5321 10.4234 31.8358C7.88471 30.1395 5.90604 27.7285 4.73762 24.9077C3.56919 22.0868 3.26347 18.9829 3.85913 15.9883C4.45479 12.9937 5.92507 10.243 8.08405 8.08405C10.243 5.92507 12.9937 4.45479 15.9883 3.85913C18.9829 3.26347 22.0868 3.56919 24.9077 4.73762C27.7285 5.90604 30.1395 7.88471 31.8358 10.4234C33.5321 12.9621 34.4375 15.9468 34.4375 19C34.4375 23.0943 32.8111 27.0209 29.916 29.916C27.0209 32.8111 23.0943 34.4375 19 34.4375ZM19 5.93751C16.4165 5.93751 13.891 6.70361 11.7429 8.13894C9.59475 9.57426 7.9205 11.6143 6.93183 14.0012C5.94316 16.3881 5.68448 19.0145 6.1885 21.5484C6.69252 24.0823 7.9366 26.4098 9.76342 28.2366C11.5902 30.0634 13.9178 31.3075 16.4516 31.8115C18.9855 32.3155 21.6119 32.0569 23.9988 31.0682C26.3857 30.0795 28.4258 28.4053 29.8611 26.2571C31.2964 24.109 32.0625 21.5835 32.0625 19C32.0625 15.5356 30.6863 12.2131 28.2366 9.76342C25.7869 7.31373 22.4644 5.93751 19 5.93751Z" fill="white"/>
<path d="M19 20.1875C17.8257 20.1875 16.6777 19.8393 15.7013 19.1869C14.7249 18.5344 13.9639 17.6071 13.5145 16.5222C13.0651 15.4372 12.9475 14.2434 13.1766 13.0917C13.4057 11.9399 13.9712 10.8819 14.8016 10.0516C15.6319 9.22118 16.6899 8.65569 17.8417 8.42659C18.9934 8.19749 20.1873 8.31507 21.2722 8.76447C22.3571 9.21386 23.2844 9.97489 23.9369 10.9513C24.5893 11.9277 24.9375 13.0757 24.9375 14.25C24.9375 15.8247 24.3119 17.335 23.1985 18.4484C22.085 19.5619 20.5747 20.1875 19 20.1875ZM19 10.6875C18.2954 10.6875 17.6066 10.8964 17.0208 11.2879C16.4349 11.6793 15.9783 12.2357 15.7087 12.8867C15.439 13.5377 15.3685 14.254 15.506 14.945C15.6434 15.6361 15.9827 16.2708 16.4809 16.7691C16.9792 17.2673 17.6139 17.6066 18.305 17.7441C18.9961 17.8815 19.7124 17.811 20.3633 17.5413C21.0143 17.2717 21.5707 16.8151 21.9621 16.2292C22.3536 15.6434 22.5625 14.9546 22.5625 14.25C22.5625 13.3052 22.1872 12.399 21.5191 11.7309C20.851 11.0628 19.9448 10.6875 19 10.6875Z" fill="white"/>
<path d="M30.3406 28.5C30.1758 28.5011 30.0126 28.4679 29.8613 28.4025C29.71 28.3371 29.574 28.2409 29.4619 28.12C28.2014 26.7451 26.6694 25.6469 24.9626 24.8947C23.2558 24.1424 21.4115 23.7527 19.5463 23.75H18.4538C14.977 23.7425 11.6338 25.0883 9.13189 27.5025C8.90073 27.6933 8.60599 27.7895 8.3068 27.772C8.00761 27.7546 7.7261 27.6246 7.51874 27.4082C7.31137 27.1918 7.1935 26.905 7.18875 26.6054C7.184 26.3057 7.29274 26.0153 7.49314 25.7925C10.4332 22.9508 14.3648 21.3662 18.4538 21.375H19.5463C21.7387 21.38 23.9063 21.8382 25.9131 22.7211C27.9199 23.6039 29.7225 24.8922 31.2075 26.505C31.3644 26.6742 31.4686 26.8854 31.5074 27.1129C31.5462 27.3403 31.5179 27.5741 31.426 27.7858C31.334 27.9974 31.1824 28.1776 30.9896 28.3045C30.7969 28.4313 30.5714 28.4993 30.3406 28.5Z" fill="white"/>
</g>
<defs>
<clipPath id="clip0_9_232">
<rect width="38" height="38" fill="white"/>
</clipPath>
</defs>
</svg>
