<svg width="148" height="26" viewBox="0 0 148 26" fill="none" xmlns="http://www.w3.org/2000/svg">
<path d="M20.3076 1C21.9534 1.39583 23.1774 2.04688 23.9794 2.95312C24.7919 3.85938 25.1982 5.07812 25.1982 6.60938C25.1982 7.63021 25.0888 8.48958 24.8701 9.1875C24.6513 9.875 24.3753 10.4479 24.0419 10.9062C23.7086 11.3542 23.344 11.7031 22.9482 11.9531C22.5628 12.1927 22.2034 12.3698 21.8701 12.4844C21.5367 12.599 21.2503 12.6667 21.0107 12.6875C20.7815 12.7083 20.6617 12.7188 20.6513 12.7188C21.0576 12.7396 21.4899 12.7865 21.9482 12.8594C22.4169 12.9323 22.8805 13.0469 23.3388 13.2031C23.7972 13.3594 24.2347 13.5625 24.6513 13.8125C25.068 14.0625 25.4326 14.375 25.7451 14.75C26.068 15.1146 26.3232 15.5521 26.5107 16.0625C26.6982 16.5729 26.7919 17.1615 26.7919 17.8281C26.7919 18.849 26.6617 19.7969 26.4013 20.6719C26.1513 21.5469 25.7034 22.3073 25.0576 22.9531C24.4222 23.5885 23.5524 24.0885 22.4482 24.4531C21.344 24.8177 19.9482 25 18.2607 25H0.120071V18.2188L2.12007 17.8281V7.59375L0.120071 7.20312V1H20.3076ZM16.7919 8.6875C16.7919 8.15625 16.6982 7.75 16.5107 7.46875C16.3336 7.17708 16.094 6.96354 15.7919 6.82812C15.4899 6.69271 15.1461 6.61458 14.7607 6.59375C14.3753 6.57292 13.9847 6.5625 13.5888 6.5625H12.1201V11.0469H13.5888C13.9847 11.0469 14.3753 11.0365 14.7607 11.0156C15.1461 10.9844 15.4899 10.8958 15.7919 10.75C16.094 10.6042 16.3336 10.375 16.5107 10.0625C16.6982 9.73958 16.7919 9.28125 16.7919 8.6875ZM16.7919 16.4844C16.7919 15.9531 16.6982 15.5469 16.5107 15.2656C16.3336 14.9844 16.094 14.776 15.7919 14.6406C15.4899 14.5052 15.1461 14.4271 14.7607 14.4062C14.3753 14.3854 13.9847 14.375 13.5888 14.375H12.1201V18.8594H13.5888C13.9847 18.8594 14.3753 18.849 14.7607 18.8281C15.1461 18.7969 15.4899 18.7083 15.7919 18.5625C16.094 18.4167 16.3336 18.1823 16.5107 17.8594C16.6982 17.5365 16.7919 17.0781 16.7919 16.4844ZM48.0991 1C49.6095 1.32292 50.9689 1.79167 52.1772 2.40625C53.3856 3.01042 54.4116 3.78646 55.2553 4.73438C56.1095 5.68229 56.7606 6.81771 57.2085 8.14062C57.6668 9.45312 57.896 10.9792 57.896 12.7188C57.896 15.0208 57.5106 16.9583 56.7397 18.5312C55.9689 20.0938 54.8803 21.3542 53.4741 22.3125C52.0783 23.2708 50.396 23.9583 48.4272 24.375C46.4585 24.7917 44.2814 25 41.896 25H29.896V18.2188L31.896 17.8281V7.59375L29.896 7.20312V1H48.0991ZM43.4272 17.8281C44.5418 17.8281 45.4012 17.7083 46.0053 17.4688C46.6095 17.2188 47.047 16.8698 47.3178 16.4219C47.5991 15.974 47.7606 15.4375 47.8022 14.8125C47.8543 14.1875 47.8803 13.4896 47.8803 12.7188C47.8803 11.9479 47.8543 11.25 47.8022 10.625C47.7606 9.98958 47.5991 9.44792 47.3178 9C47.047 8.55208 46.6095 8.20833 46.0053 7.96875C45.4012 7.71875 44.5418 7.59375 43.4272 7.59375H41.896V17.8281H43.4272ZM81.9688 17.4688C81.9583 18.5 81.8073 19.4167 81.5156 20.2188C81.2344 21.0104 80.8385 21.6979 80.3281 22.2812C79.8177 22.8542 79.2188 23.3438 78.5312 23.75C77.8438 24.1458 77.1042 24.4688 76.3125 24.7188C75.5208 24.9583 74.6875 25.1094 73.8125 25.1719C72.9479 25.2448 72.0781 25.2812 71.2031 25.2812C69.6198 25.2812 68.2292 25.2188 67.0312 25.0938C66.3438 25.0104 65.3177 24.7812 63.9531 24.4062C62.8385 24.1042 61.9635 23.7865 61.3281 23.4531V17.2812H66.0312C66.5729 18.0312 67.1823 18.5833 67.8594 18.9375C68.5469 19.2917 69.25 19.4688 69.9688 19.4688C70.1562 19.4688 70.3646 19.4531 70.5938 19.4219C70.8229 19.3906 71.0365 19.3021 71.2344 19.1562C71.4427 19.0104 71.6146 18.7812 71.75 18.4688C71.8958 18.1562 71.9688 17.7188 71.9688 17.1562C71.0729 17.0729 70.1823 16.9531 69.2969 16.7969C68.4219 16.6406 67.5833 16.4271 66.7812 16.1562C65.9792 15.8854 65.2292 15.5469 64.5312 15.1406C63.8438 14.724 63.2448 14.224 62.7344 13.6406C62.2344 13.0573 61.8385 12.375 61.5469 11.5938C61.2656 10.8021 61.125 9.89062 61.125 8.85938C61.125 7.75521 61.2708 6.78646 61.5625 5.95312C61.8542 5.10938 62.25 4.38542 62.75 3.78125C63.2604 3.16667 63.8542 2.66146 64.5312 2.26562C65.2188 1.85938 65.9531 1.53646 66.7344 1.29688C67.526 1.05729 68.3438 0.90625 69.1875 0.84375C70.0417 0.78125 70.8906 0.75 71.7344 0.75C72.9635 0.75 74.0677 0.796875 75.0469 0.890625C76.0365 0.973958 76.9271 1.10938 77.7188 1.29688C78.5104 1.48438 79.2083 1.69792 79.8125 1.9375C80.4271 2.16667 80.974 2.39062 81.4531 2.60938V8.70312H76.75C76.2188 7.95312 75.625 7.40104 74.9688 7.04688C74.3229 6.69271 73.6562 6.51562 72.9688 6.51562C72.7812 6.51562 72.5677 6.54167 72.3281 6.59375C72.0885 6.63542 71.8646 6.74479 71.6562 6.92188C71.4479 7.08854 71.2708 7.33854 71.125 7.67188C70.9792 7.99479 70.9062 8.4375 70.9062 9C72.7292 9.0625 74.3333 9.26042 75.7188 9.59375C77.1042 9.92708 78.2552 10.4323 79.1719 11.1094C80.099 11.776 80.7969 12.6354 81.2656 13.6875C81.7344 14.7292 81.9688 15.9896 81.9688 17.4688ZM97.604 13.2969V25H85.6196V18.2188L87.6196 17.8281V8.17188L85.6196 7.78125V1H97.604L102.635 10.2188L107.62 1H119.62V7.78125L117.62 8.17188V17.8281L119.62 18.2188V25H107.62V13.2969L102.635 21.9219L97.604 13.2969ZM147.989 25H138.646C138.354 24.4583 138.052 23.8854 137.739 23.2812C137.427 22.6667 137.125 22.026 136.833 21.3594C136.541 20.6927 136.265 20.0052 136.005 19.2969C135.755 18.5885 135.541 17.8594 135.364 17.1094H134.849V25H123.567V18.7656L125.442 18.4062V9.51562L123.567 9.15625V3H136.364C138.062 3 139.526 3.07292 140.755 3.21875C141.994 3.36458 143.041 3.57812 143.896 3.85938C144.76 4.14062 145.458 4.48438 145.989 4.89062C146.521 5.28646 146.932 5.73958 147.224 6.25C147.526 6.75 147.729 7.30208 147.833 7.90625C147.937 8.51042 147.989 9.15104 147.989 9.82812C147.989 10.5156 147.922 11.1406 147.786 11.7031C147.661 12.2656 147.432 12.7812 147.099 13.25C146.765 13.7188 146.307 14.151 145.724 14.5469C145.151 14.9323 144.416 15.2969 143.521 15.6406C143.708 16.0156 143.984 16.4635 144.349 16.9844C144.724 17.4948 145.13 18.0208 145.567 18.5625C146.005 19.0938 146.437 19.6094 146.864 20.1094C147.302 20.6094 147.677 21.0365 147.989 21.3906V25ZM134.849 12.875C135.422 12.875 135.937 12.849 136.396 12.7969C136.864 12.7344 137.26 12.6094 137.583 12.4219C137.916 12.224 138.172 11.9375 138.349 11.5625C138.526 11.1875 138.614 10.6823 138.614 10.0469C138.614 9.42188 138.526 8.92188 138.349 8.54688C138.172 8.17188 137.916 7.88542 137.583 7.6875C137.26 7.47917 136.864 7.34375 136.396 7.28125C135.937 7.21875 135.422 7.1875 134.849 7.1875V12.875Z" fill="white"/>
</svg>
